<mxfile host="Electron" agent="Mozilla/5.0 (X11; Linux x86_64) AppleWebKit/537.36 (KHTML, like Gecko) draw.io/26.0.9 Chrome/128.0.6613.186 Electron/32.3.0 Safari/537.36" version="26.0.9" pages="7">
  <diagram name="1_1" id="raGk_D8FTLXwgUmbc4jt">
    <mxGraphModel dx="479" dy="602" grid="1" gridSize="10" guides="1" tooltips="1" connect="1" arrows="1" fold="1" page="1" pageScale="1" pageWidth="380" pageHeight="200" math="0" shadow="0">
      <root>
        <mxCell id="0" />
        <mxCell id="1" parent="0" />
        <mxCell id="YVadF5KtlsCSZIGHM0kt-62" value="1" style="text;html=1;align=center;verticalAlign=middle;whiteSpace=wrap;rounded=0;fillColor=#f5f5f5;strokeColor=#666666;fontSize=14;fontColor=#333333;" parent="1" vertex="1">
          <mxGeometry x="60" y="60" width="40" height="20" as="geometry" />
        </mxCell>
        <mxCell id="YVadF5KtlsCSZIGHM0kt-69" value="head" style="text;html=1;align=center;verticalAlign=middle;whiteSpace=wrap;rounded=0;fontSize=10;" parent="1" vertex="1">
          <mxGeometry x="60" y="140" width="40" height="20" as="geometry" />
        </mxCell>
        <mxCell id="HLPhJ_ixPwx_cEk2xLpj-1" value="3" style="text;html=1;align=center;verticalAlign=middle;whiteSpace=wrap;rounded=0;fillColor=#f5f5f5;strokeColor=#666666;fontSize=14;fontColor=#333333;" vertex="1" parent="1">
          <mxGeometry x="60" y="80" width="40" height="20" as="geometry" />
        </mxCell>
        <mxCell id="HLPhJ_ixPwx_cEk2xLpj-2" value="5" style="text;html=1;align=center;verticalAlign=middle;whiteSpace=wrap;rounded=0;fillColor=#f5f5f5;strokeColor=#666666;fontSize=14;fontColor=#333333;" vertex="1" parent="1">
          <mxGeometry x="60" y="100" width="40" height="20" as="geometry" />
        </mxCell>
        <mxCell id="HLPhJ_ixPwx_cEk2xLpj-3" value="6" style="text;html=1;align=center;verticalAlign=middle;whiteSpace=wrap;rounded=0;fillColor=#f5f5f5;strokeColor=#666666;fontSize=14;fontColor=#333333;" vertex="1" parent="1">
          <mxGeometry x="60" y="120" width="40" height="20" as="geometry" />
        </mxCell>
        <mxCell id="HLPhJ_ixPwx_cEk2xLpj-4" value="0" style="text;html=1;align=center;verticalAlign=middle;whiteSpace=wrap;rounded=0;fillColor=#f5f5f5;strokeColor=#666666;fontSize=14;fontColor=#333333;" vertex="1" parent="1">
          <mxGeometry x="140" y="60" width="40" height="40" as="geometry" />
        </mxCell>
        <mxCell id="wyo38TF92AZ36UTN26x6-1" style="edgeStyle=orthogonalEdgeStyle;rounded=0;orthogonalLoop=1;jettySize=auto;html=1;exitX=0.5;exitY=0;exitDx=0;exitDy=0;entryX=1;entryY=0.5;entryDx=0;entryDy=0;fillColor=#f5f5f5;strokeColor=#666666;" edge="1" parent="1" source="HLPhJ_ixPwx_cEk2xLpj-5" target="HLPhJ_ixPwx_cEk2xLpj-2">
          <mxGeometry relative="1" as="geometry">
            <Array as="points">
              <mxPoint x="240" y="40" />
              <mxPoint x="120" y="40" />
              <mxPoint x="120" y="110" />
            </Array>
          </mxGeometry>
        </mxCell>
        <mxCell id="HLPhJ_ixPwx_cEk2xLpj-5" value="4" style="text;html=1;align=center;verticalAlign=middle;whiteSpace=wrap;rounded=0;fillColor=#f5f5f5;strokeColor=#666666;fontSize=14;fontColor=#333333;" vertex="1" parent="1">
          <mxGeometry x="220" y="60" width="40" height="40" as="geometry" />
        </mxCell>
        <mxCell id="HLPhJ_ixPwx_cEk2xLpj-6" value="0" style="text;html=1;align=center;verticalAlign=middle;whiteSpace=wrap;rounded=0;fontSize=10;" vertex="1" parent="1">
          <mxGeometry x="40" y="60" width="20" height="20" as="geometry" />
        </mxCell>
        <mxCell id="HLPhJ_ixPwx_cEk2xLpj-7" value="1" style="text;html=1;align=center;verticalAlign=middle;whiteSpace=wrap;rounded=0;fontSize=10;" vertex="1" parent="1">
          <mxGeometry x="40" y="80" width="20" height="20" as="geometry" />
        </mxCell>
        <mxCell id="HLPhJ_ixPwx_cEk2xLpj-8" value="2" style="text;html=1;align=center;verticalAlign=middle;whiteSpace=wrap;rounded=0;fontSize=10;" vertex="1" parent="1">
          <mxGeometry x="40" y="100" width="20" height="20" as="geometry" />
        </mxCell>
        <mxCell id="HLPhJ_ixPwx_cEk2xLpj-9" value="3" style="text;html=1;align=center;verticalAlign=middle;whiteSpace=wrap;rounded=0;fontSize=10;" vertex="1" parent="1">
          <mxGeometry x="40" y="120" width="20" height="20" as="geometry" />
        </mxCell>
        <mxCell id="HLPhJ_ixPwx_cEk2xLpj-10" value="start" style="text;html=1;align=center;verticalAlign=middle;whiteSpace=wrap;rounded=0;fontSize=10;" vertex="1" parent="1">
          <mxGeometry x="140" y="100" width="40" height="20" as="geometry" />
        </mxCell>
        <mxCell id="HLPhJ_ixPwx_cEk2xLpj-12" value="end" style="text;html=1;align=center;verticalAlign=middle;whiteSpace=wrap;rounded=0;fontSize=10;" vertex="1" parent="1">
          <mxGeometry x="220" y="100" width="40" height="20" as="geometry" />
        </mxCell>
        <mxCell id="HLPhJ_ixPwx_cEk2xLpj-15" value="4 / 2 = 2" style="edgeStyle=orthogonalEdgeStyle;rounded=0;orthogonalLoop=1;jettySize=auto;html=1;exitX=0.5;exitY=0;exitDx=0;exitDy=0;entryX=1;entryY=0.5;entryDx=0;entryDy=0;fillColor=#f5f5f5;strokeColor=#666666;" edge="1" parent="1" source="HLPhJ_ixPwx_cEk2xLpj-4" target="HLPhJ_ixPwx_cEk2xLpj-2">
          <mxGeometry relative="1" as="geometry" />
        </mxCell>
        <mxCell id="OzNwr1n8sYcofSGi2m3O-1" value="2" style="text;html=1;align=center;verticalAlign=middle;whiteSpace=wrap;rounded=0;fillColor=#f5f5f5;strokeColor=#666666;fontSize=14;fontColor=#333333;" vertex="1" parent="1">
          <mxGeometry x="300" y="60" width="40" height="40" as="geometry" />
        </mxCell>
        <mxCell id="OzNwr1n8sYcofSGi2m3O-2" value="target" style="text;html=1;align=center;verticalAlign=middle;whiteSpace=wrap;rounded=0;fontSize=10;" vertex="1" parent="1">
          <mxGeometry x="300" y="100" width="40" height="20" as="geometry" />
        </mxCell>
      </root>
    </mxGraphModel>
  </diagram>
  <diagram name="1_2" id="Xe5PNW_9NJMJDappwKP_">
    <mxGraphModel dx="454" dy="703" grid="1" gridSize="10" guides="1" tooltips="1" connect="1" arrows="1" fold="1" page="1" pageScale="1" pageWidth="380" pageHeight="200" math="0" shadow="0">
      <root>
        <mxCell id="CXMu4a2lY9IRvnegGQ43-0" />
        <mxCell id="CXMu4a2lY9IRvnegGQ43-1" parent="CXMu4a2lY9IRvnegGQ43-0" />
        <mxCell id="CXMu4a2lY9IRvnegGQ43-2" value="1" style="text;html=1;align=center;verticalAlign=middle;whiteSpace=wrap;rounded=0;fillColor=#f5f5f5;strokeColor=#666666;fontSize=14;fontColor=#333333;" vertex="1" parent="CXMu4a2lY9IRvnegGQ43-1">
          <mxGeometry x="60" y="60" width="40" height="20" as="geometry" />
        </mxCell>
        <mxCell id="CXMu4a2lY9IRvnegGQ43-3" value="head" style="text;html=1;align=center;verticalAlign=middle;whiteSpace=wrap;rounded=0;fontSize=10;" vertex="1" parent="CXMu4a2lY9IRvnegGQ43-1">
          <mxGeometry x="60" y="140" width="40" height="20" as="geometry" />
        </mxCell>
        <mxCell id="CXMu4a2lY9IRvnegGQ43-4" value="3" style="text;html=1;align=center;verticalAlign=middle;whiteSpace=wrap;rounded=0;fillColor=#f5f5f5;strokeColor=#666666;fontSize=14;fontColor=#333333;" vertex="1" parent="CXMu4a2lY9IRvnegGQ43-1">
          <mxGeometry x="60" y="80" width="40" height="20" as="geometry" />
        </mxCell>
        <mxCell id="CXMu4a2lY9IRvnegGQ43-5" value="5" style="text;html=1;align=center;verticalAlign=middle;whiteSpace=wrap;rounded=0;fillColor=#f5f5f5;strokeColor=#666666;fontSize=14;fontColor=#333333;" vertex="1" parent="CXMu4a2lY9IRvnegGQ43-1">
          <mxGeometry x="60" y="100" width="40" height="20" as="geometry" />
        </mxCell>
        <mxCell id="CXMu4a2lY9IRvnegGQ43-6" value="6" style="text;html=1;align=center;verticalAlign=middle;whiteSpace=wrap;rounded=0;fillColor=#f5f5f5;strokeColor=#666666;fontSize=14;fontColor=#333333;" vertex="1" parent="CXMu4a2lY9IRvnegGQ43-1">
          <mxGeometry x="60" y="120" width="40" height="20" as="geometry" />
        </mxCell>
        <mxCell id="CXMu4a2lY9IRvnegGQ43-7" value="0" style="text;html=1;align=center;verticalAlign=middle;whiteSpace=wrap;rounded=0;fillColor=#f5f5f5;strokeColor=#666666;fontSize=14;fontColor=#333333;" vertex="1" parent="CXMu4a2lY9IRvnegGQ43-1">
          <mxGeometry x="140" y="60" width="40" height="40" as="geometry" />
        </mxCell>
        <mxCell id="CXMu4a2lY9IRvnegGQ43-8" style="edgeStyle=orthogonalEdgeStyle;rounded=0;orthogonalLoop=1;jettySize=auto;html=1;exitX=0.5;exitY=0;exitDx=0;exitDy=0;entryX=1;entryY=0.5;entryDx=0;entryDy=0;fillColor=#dae8fc;strokeColor=#6c8ebf;" edge="1" parent="CXMu4a2lY9IRvnegGQ43-1" source="CXMu4a2lY9IRvnegGQ43-9" target="CXMu4a2lY9IRvnegGQ43-4">
          <mxGeometry relative="1" as="geometry">
            <Array as="points">
              <mxPoint x="240" y="40" />
              <mxPoint x="120" y="40" />
              <mxPoint x="120" y="90" />
            </Array>
          </mxGeometry>
        </mxCell>
        <mxCell id="CXMu4a2lY9IRvnegGQ43-9" value="3" style="text;html=1;align=center;verticalAlign=middle;whiteSpace=wrap;rounded=0;fillColor=#dae8fc;strokeColor=#6c8ebf;fontSize=14;fontColor=#333333;" vertex="1" parent="CXMu4a2lY9IRvnegGQ43-1">
          <mxGeometry x="220" y="60" width="40" height="40" as="geometry" />
        </mxCell>
        <mxCell id="CXMu4a2lY9IRvnegGQ43-10" value="0" style="text;html=1;align=center;verticalAlign=middle;whiteSpace=wrap;rounded=0;fontSize=10;" vertex="1" parent="CXMu4a2lY9IRvnegGQ43-1">
          <mxGeometry x="40" y="60" width="20" height="20" as="geometry" />
        </mxCell>
        <mxCell id="CXMu4a2lY9IRvnegGQ43-11" value="1" style="text;html=1;align=center;verticalAlign=middle;whiteSpace=wrap;rounded=0;fontSize=10;" vertex="1" parent="CXMu4a2lY9IRvnegGQ43-1">
          <mxGeometry x="40" y="80" width="20" height="20" as="geometry" />
        </mxCell>
        <mxCell id="CXMu4a2lY9IRvnegGQ43-12" value="2" style="text;html=1;align=center;verticalAlign=middle;whiteSpace=wrap;rounded=0;fontSize=10;" vertex="1" parent="CXMu4a2lY9IRvnegGQ43-1">
          <mxGeometry x="40" y="100" width="20" height="20" as="geometry" />
        </mxCell>
        <mxCell id="CXMu4a2lY9IRvnegGQ43-13" value="3" style="text;html=1;align=center;verticalAlign=middle;whiteSpace=wrap;rounded=0;fontSize=10;" vertex="1" parent="CXMu4a2lY9IRvnegGQ43-1">
          <mxGeometry x="40" y="120" width="20" height="20" as="geometry" />
        </mxCell>
        <mxCell id="CXMu4a2lY9IRvnegGQ43-14" value="start" style="text;html=1;align=center;verticalAlign=middle;whiteSpace=wrap;rounded=0;fontSize=10;" vertex="1" parent="CXMu4a2lY9IRvnegGQ43-1">
          <mxGeometry x="140" y="100" width="40" height="20" as="geometry" />
        </mxCell>
        <mxCell id="CXMu4a2lY9IRvnegGQ43-15" value="end" style="text;html=1;align=center;verticalAlign=middle;whiteSpace=wrap;rounded=0;fontSize=10;" vertex="1" parent="CXMu4a2lY9IRvnegGQ43-1">
          <mxGeometry x="220" y="100" width="40" height="20" as="geometry" />
        </mxCell>
        <mxCell id="CXMu4a2lY9IRvnegGQ43-16" value="3 / 2 = 1" style="edgeStyle=orthogonalEdgeStyle;rounded=0;orthogonalLoop=1;jettySize=auto;html=1;exitX=0.5;exitY=0;exitDx=0;exitDy=0;entryX=1;entryY=0.5;entryDx=0;entryDy=0;fillColor=#f5f5f5;strokeColor=#666666;" edge="1" parent="CXMu4a2lY9IRvnegGQ43-1" source="CXMu4a2lY9IRvnegGQ43-7" target="CXMu4a2lY9IRvnegGQ43-4">
          <mxGeometry relative="1" as="geometry" />
        </mxCell>
        <mxCell id="CXMu4a2lY9IRvnegGQ43-17" value="2" style="text;html=1;align=center;verticalAlign=middle;whiteSpace=wrap;rounded=0;fillColor=#f5f5f5;strokeColor=#666666;fontSize=14;fontColor=#333333;" vertex="1" parent="CXMu4a2lY9IRvnegGQ43-1">
          <mxGeometry x="300" y="60" width="40" height="40" as="geometry" />
        </mxCell>
        <mxCell id="CXMu4a2lY9IRvnegGQ43-18" value="target" style="text;html=1;align=center;verticalAlign=middle;whiteSpace=wrap;rounded=0;fontSize=10;" vertex="1" parent="CXMu4a2lY9IRvnegGQ43-1">
          <mxGeometry x="300" y="100" width="40" height="20" as="geometry" />
        </mxCell>
      </root>
    </mxGraphModel>
  </diagram>
  <diagram name="1_3" id="bgQ-XmwQGah9FWewh59-">
    <mxGraphModel dx="318" dy="492" grid="1" gridSize="10" guides="1" tooltips="1" connect="1" arrows="1" fold="1" page="1" pageScale="1" pageWidth="380" pageHeight="200" math="0" shadow="0">
      <root>
        <mxCell id="JKQjCO897a4f7hNjVRfU-0" />
        <mxCell id="JKQjCO897a4f7hNjVRfU-1" parent="JKQjCO897a4f7hNjVRfU-0" />
        <mxCell id="JKQjCO897a4f7hNjVRfU-2" value="1" style="text;html=1;align=center;verticalAlign=middle;whiteSpace=wrap;rounded=0;fillColor=#f5f5f5;strokeColor=#666666;fontSize=14;fontColor=#333333;" vertex="1" parent="JKQjCO897a4f7hNjVRfU-1">
          <mxGeometry x="60" y="60" width="40" height="20" as="geometry" />
        </mxCell>
        <mxCell id="JKQjCO897a4f7hNjVRfU-3" value="head" style="text;html=1;align=center;verticalAlign=middle;whiteSpace=wrap;rounded=0;fontSize=10;" vertex="1" parent="JKQjCO897a4f7hNjVRfU-1">
          <mxGeometry x="60" y="140" width="40" height="20" as="geometry" />
        </mxCell>
        <mxCell id="JKQjCO897a4f7hNjVRfU-4" value="3" style="text;html=1;align=center;verticalAlign=middle;whiteSpace=wrap;rounded=0;fillColor=#f5f5f5;strokeColor=#666666;fontSize=14;fontColor=#333333;" vertex="1" parent="JKQjCO897a4f7hNjVRfU-1">
          <mxGeometry x="60" y="80" width="40" height="20" as="geometry" />
        </mxCell>
        <mxCell id="JKQjCO897a4f7hNjVRfU-5" value="5" style="text;html=1;align=center;verticalAlign=middle;whiteSpace=wrap;rounded=0;fillColor=#f5f5f5;strokeColor=#666666;fontSize=14;fontColor=#333333;" vertex="1" parent="JKQjCO897a4f7hNjVRfU-1">
          <mxGeometry x="60" y="100" width="40" height="20" as="geometry" />
        </mxCell>
        <mxCell id="JKQjCO897a4f7hNjVRfU-6" value="6" style="text;html=1;align=center;verticalAlign=middle;whiteSpace=wrap;rounded=0;fillColor=#f5f5f5;strokeColor=#666666;fontSize=14;fontColor=#333333;" vertex="1" parent="JKQjCO897a4f7hNjVRfU-1">
          <mxGeometry x="60" y="120" width="40" height="20" as="geometry" />
        </mxCell>
        <mxCell id="JKQjCO897a4f7hNjVRfU-7" value="0" style="text;html=1;align=center;verticalAlign=middle;whiteSpace=wrap;rounded=0;fillColor=#f5f5f5;strokeColor=#666666;fontSize=14;fontColor=#333333;" vertex="1" parent="JKQjCO897a4f7hNjVRfU-1">
          <mxGeometry x="140" y="60" width="40" height="40" as="geometry" />
        </mxCell>
        <mxCell id="JKQjCO897a4f7hNjVRfU-8" style="edgeStyle=orthogonalEdgeStyle;rounded=0;orthogonalLoop=1;jettySize=auto;html=1;exitX=0.5;exitY=0;exitDx=0;exitDy=0;entryX=1;entryY=0.5;entryDx=0;entryDy=0;fillColor=#dae8fc;strokeColor=#6c8ebf;" edge="1" parent="JKQjCO897a4f7hNjVRfU-1" source="JKQjCO897a4f7hNjVRfU-9" target="JKQjCO897a4f7hNjVRfU-4">
          <mxGeometry relative="1" as="geometry">
            <Array as="points">
              <mxPoint x="240" y="40" />
              <mxPoint x="120" y="40" />
              <mxPoint x="120" y="90" />
            </Array>
          </mxGeometry>
        </mxCell>
        <mxCell id="JKQjCO897a4f7hNjVRfU-9" value="2" style="text;html=1;align=center;verticalAlign=middle;whiteSpace=wrap;rounded=0;fillColor=#dae8fc;strokeColor=#6c8ebf;fontSize=14;fontColor=#333333;" vertex="1" parent="JKQjCO897a4f7hNjVRfU-1">
          <mxGeometry x="220" y="60" width="40" height="40" as="geometry" />
        </mxCell>
        <mxCell id="JKQjCO897a4f7hNjVRfU-10" value="0" style="text;html=1;align=center;verticalAlign=middle;whiteSpace=wrap;rounded=0;fontSize=10;" vertex="1" parent="JKQjCO897a4f7hNjVRfU-1">
          <mxGeometry x="40" y="60" width="20" height="20" as="geometry" />
        </mxCell>
        <mxCell id="JKQjCO897a4f7hNjVRfU-11" value="1" style="text;html=1;align=center;verticalAlign=middle;whiteSpace=wrap;rounded=0;fontSize=10;" vertex="1" parent="JKQjCO897a4f7hNjVRfU-1">
          <mxGeometry x="40" y="80" width="20" height="20" as="geometry" />
        </mxCell>
        <mxCell id="JKQjCO897a4f7hNjVRfU-12" value="2" style="text;html=1;align=center;verticalAlign=middle;whiteSpace=wrap;rounded=0;fontSize=10;" vertex="1" parent="JKQjCO897a4f7hNjVRfU-1">
          <mxGeometry x="40" y="100" width="20" height="20" as="geometry" />
        </mxCell>
        <mxCell id="JKQjCO897a4f7hNjVRfU-13" value="3" style="text;html=1;align=center;verticalAlign=middle;whiteSpace=wrap;rounded=0;fontSize=10;" vertex="1" parent="JKQjCO897a4f7hNjVRfU-1">
          <mxGeometry x="40" y="120" width="20" height="20" as="geometry" />
        </mxCell>
        <mxCell id="JKQjCO897a4f7hNjVRfU-14" value="start" style="text;html=1;align=center;verticalAlign=middle;whiteSpace=wrap;rounded=0;fontSize=10;" vertex="1" parent="JKQjCO897a4f7hNjVRfU-1">
          <mxGeometry x="140" y="100" width="40" height="20" as="geometry" />
        </mxCell>
        <mxCell id="JKQjCO897a4f7hNjVRfU-15" value="end" style="text;html=1;align=center;verticalAlign=middle;whiteSpace=wrap;rounded=0;fontSize=10;" vertex="1" parent="JKQjCO897a4f7hNjVRfU-1">
          <mxGeometry x="220" y="100" width="40" height="20" as="geometry" />
        </mxCell>
        <mxCell id="JKQjCO897a4f7hNjVRfU-16" value="2 / 2 = 1" style="edgeStyle=orthogonalEdgeStyle;rounded=0;orthogonalLoop=1;jettySize=auto;html=1;exitX=0.5;exitY=0;exitDx=0;exitDy=0;entryX=1;entryY=0.5;entryDx=0;entryDy=0;fillColor=#f5f5f5;strokeColor=#666666;" edge="1" parent="JKQjCO897a4f7hNjVRfU-1" source="JKQjCO897a4f7hNjVRfU-7" target="JKQjCO897a4f7hNjVRfU-4">
          <mxGeometry relative="1" as="geometry" />
        </mxCell>
        <mxCell id="JKQjCO897a4f7hNjVRfU-17" value="2" style="text;html=1;align=center;verticalAlign=middle;whiteSpace=wrap;rounded=0;fillColor=#f5f5f5;strokeColor=#666666;fontSize=14;fontColor=#333333;" vertex="1" parent="JKQjCO897a4f7hNjVRfU-1">
          <mxGeometry x="300" y="60" width="40" height="40" as="geometry" />
        </mxCell>
        <mxCell id="JKQjCO897a4f7hNjVRfU-18" value="target" style="text;html=1;align=center;verticalAlign=middle;whiteSpace=wrap;rounded=0;fontSize=10;" vertex="1" parent="JKQjCO897a4f7hNjVRfU-1">
          <mxGeometry x="300" y="100" width="40" height="20" as="geometry" />
        </mxCell>
      </root>
    </mxGraphModel>
  </diagram>
  <diagram name="1_4" id="Nwadzig5twYr5KLz-5EW">
    <mxGraphModel dx="378" dy="586" grid="1" gridSize="10" guides="1" tooltips="1" connect="1" arrows="1" fold="1" page="1" pageScale="1" pageWidth="380" pageHeight="200" math="0" shadow="0">
      <root>
        <mxCell id="PVrmdTZthWEJJLm-ss5--0" />
        <mxCell id="PVrmdTZthWEJJLm-ss5--1" parent="PVrmdTZthWEJJLm-ss5--0" />
        <mxCell id="PVrmdTZthWEJJLm-ss5--2" value="1" style="text;html=1;align=center;verticalAlign=middle;whiteSpace=wrap;rounded=0;fillColor=#f5f5f5;strokeColor=#666666;fontSize=14;fontColor=#333333;" vertex="1" parent="PVrmdTZthWEJJLm-ss5--1">
          <mxGeometry x="60" y="60" width="40" height="20" as="geometry" />
        </mxCell>
        <mxCell id="PVrmdTZthWEJJLm-ss5--3" value="head" style="text;html=1;align=center;verticalAlign=middle;whiteSpace=wrap;rounded=0;fontSize=10;" vertex="1" parent="PVrmdTZthWEJJLm-ss5--1">
          <mxGeometry x="60" y="140" width="40" height="20" as="geometry" />
        </mxCell>
        <mxCell id="PVrmdTZthWEJJLm-ss5--4" value="3" style="text;html=1;align=center;verticalAlign=middle;whiteSpace=wrap;rounded=0;fillColor=#f5f5f5;strokeColor=#666666;fontSize=14;fontColor=#333333;" vertex="1" parent="PVrmdTZthWEJJLm-ss5--1">
          <mxGeometry x="60" y="80" width="40" height="20" as="geometry" />
        </mxCell>
        <mxCell id="PVrmdTZthWEJJLm-ss5--5" value="5" style="text;html=1;align=center;verticalAlign=middle;whiteSpace=wrap;rounded=0;fillColor=#f5f5f5;strokeColor=#666666;fontSize=14;fontColor=#333333;" vertex="1" parent="PVrmdTZthWEJJLm-ss5--1">
          <mxGeometry x="60" y="100" width="40" height="20" as="geometry" />
        </mxCell>
        <mxCell id="PVrmdTZthWEJJLm-ss5--6" value="6" style="text;html=1;align=center;verticalAlign=middle;whiteSpace=wrap;rounded=0;fillColor=#f5f5f5;strokeColor=#666666;fontSize=14;fontColor=#333333;" vertex="1" parent="PVrmdTZthWEJJLm-ss5--1">
          <mxGeometry x="60" y="120" width="40" height="20" as="geometry" />
        </mxCell>
        <mxCell id="PVrmdTZthWEJJLm-ss5--7" value="0" style="text;html=1;align=center;verticalAlign=middle;whiteSpace=wrap;rounded=0;fillColor=#f5f5f5;strokeColor=#666666;fontSize=14;fontColor=#333333;" vertex="1" parent="PVrmdTZthWEJJLm-ss5--1">
          <mxGeometry x="140" y="60" width="40" height="40" as="geometry" />
        </mxCell>
        <mxCell id="PVrmdTZthWEJJLm-ss5--8" style="edgeStyle=orthogonalEdgeStyle;rounded=0;orthogonalLoop=1;jettySize=auto;html=1;exitX=0.5;exitY=0;exitDx=0;exitDy=0;entryX=1;entryY=0.5;entryDx=0;entryDy=0;fillColor=#dae8fc;strokeColor=#6c8ebf;" edge="1" parent="PVrmdTZthWEJJLm-ss5--1" source="PVrmdTZthWEJJLm-ss5--9" target="PVrmdTZthWEJJLm-ss5--2">
          <mxGeometry relative="1" as="geometry">
            <Array as="points">
              <mxPoint x="240" y="40" />
              <mxPoint x="120" y="40" />
              <mxPoint x="120" y="70" />
            </Array>
          </mxGeometry>
        </mxCell>
        <mxCell id="PVrmdTZthWEJJLm-ss5--9" value="1" style="text;html=1;align=center;verticalAlign=middle;whiteSpace=wrap;rounded=0;fillColor=#dae8fc;strokeColor=#6c8ebf;fontSize=14;fontColor=#333333;" vertex="1" parent="PVrmdTZthWEJJLm-ss5--1">
          <mxGeometry x="220" y="60" width="40" height="40" as="geometry" />
        </mxCell>
        <mxCell id="PVrmdTZthWEJJLm-ss5--10" value="0" style="text;html=1;align=center;verticalAlign=middle;whiteSpace=wrap;rounded=0;fontSize=10;" vertex="1" parent="PVrmdTZthWEJJLm-ss5--1">
          <mxGeometry x="40" y="60" width="20" height="20" as="geometry" />
        </mxCell>
        <mxCell id="PVrmdTZthWEJJLm-ss5--11" value="1" style="text;html=1;align=center;verticalAlign=middle;whiteSpace=wrap;rounded=0;fontSize=10;" vertex="1" parent="PVrmdTZthWEJJLm-ss5--1">
          <mxGeometry x="40" y="80" width="20" height="20" as="geometry" />
        </mxCell>
        <mxCell id="PVrmdTZthWEJJLm-ss5--12" value="2" style="text;html=1;align=center;verticalAlign=middle;whiteSpace=wrap;rounded=0;fontSize=10;" vertex="1" parent="PVrmdTZthWEJJLm-ss5--1">
          <mxGeometry x="40" y="100" width="20" height="20" as="geometry" />
        </mxCell>
        <mxCell id="PVrmdTZthWEJJLm-ss5--13" value="3" style="text;html=1;align=center;verticalAlign=middle;whiteSpace=wrap;rounded=0;fontSize=10;" vertex="1" parent="PVrmdTZthWEJJLm-ss5--1">
          <mxGeometry x="40" y="120" width="20" height="20" as="geometry" />
        </mxCell>
        <mxCell id="PVrmdTZthWEJJLm-ss5--14" value="start" style="text;html=1;align=center;verticalAlign=middle;whiteSpace=wrap;rounded=0;fontSize=10;" vertex="1" parent="PVrmdTZthWEJJLm-ss5--1">
          <mxGeometry x="140" y="100" width="40" height="20" as="geometry" />
        </mxCell>
        <mxCell id="PVrmdTZthWEJJLm-ss5--15" value="end" style="text;html=1;align=center;verticalAlign=middle;whiteSpace=wrap;rounded=0;fontSize=10;" vertex="1" parent="PVrmdTZthWEJJLm-ss5--1">
          <mxGeometry x="220" y="100" width="40" height="20" as="geometry" />
        </mxCell>
        <mxCell id="PVrmdTZthWEJJLm-ss5--16" value="1 / 2 = 0" style="edgeStyle=orthogonalEdgeStyle;rounded=0;orthogonalLoop=1;jettySize=auto;html=1;exitX=0.5;exitY=0;exitDx=0;exitDy=0;entryX=1;entryY=0.5;entryDx=0;entryDy=0;fillColor=#f5f5f5;strokeColor=#666666;" edge="1" parent="PVrmdTZthWEJJLm-ss5--1" source="PVrmdTZthWEJJLm-ss5--7" target="PVrmdTZthWEJJLm-ss5--2">
          <mxGeometry relative="1" as="geometry" />
        </mxCell>
        <mxCell id="PVrmdTZthWEJJLm-ss5--17" value="2" style="text;html=1;align=center;verticalAlign=middle;whiteSpace=wrap;rounded=0;fillColor=#f5f5f5;strokeColor=#666666;fontSize=14;fontColor=#333333;" vertex="1" parent="PVrmdTZthWEJJLm-ss5--1">
          <mxGeometry x="300" y="60" width="40" height="40" as="geometry" />
        </mxCell>
        <mxCell id="PVrmdTZthWEJJLm-ss5--18" value="target" style="text;html=1;align=center;verticalAlign=middle;whiteSpace=wrap;rounded=0;fontSize=10;" vertex="1" parent="PVrmdTZthWEJJLm-ss5--1">
          <mxGeometry x="300" y="100" width="40" height="20" as="geometry" />
        </mxCell>
      </root>
    </mxGraphModel>
  </diagram>
  <diagram name="1_5" id="8nInTX4Pj194m9KKf9wE">
    <mxGraphModel dx="575" dy="723" grid="1" gridSize="10" guides="1" tooltips="1" connect="1" arrows="1" fold="1" page="1" pageScale="1" pageWidth="380" pageHeight="240" math="0" shadow="0">
      <root>
        <mxCell id="Y5Q_eQNpxi7wkEvh1GTu-0" />
        <mxCell id="Y5Q_eQNpxi7wkEvh1GTu-1" parent="Y5Q_eQNpxi7wkEvh1GTu-0" />
        <mxCell id="Y5Q_eQNpxi7wkEvh1GTu-2" value="1" style="text;html=1;align=center;verticalAlign=middle;whiteSpace=wrap;rounded=0;fillColor=#f5f5f5;strokeColor=#666666;fontSize=14;fontColor=#333333;" vertex="1" parent="Y5Q_eQNpxi7wkEvh1GTu-1">
          <mxGeometry x="60" y="60" width="40" height="20" as="geometry" />
        </mxCell>
        <mxCell id="Y5Q_eQNpxi7wkEvh1GTu-3" value="head" style="text;html=1;align=center;verticalAlign=middle;whiteSpace=wrap;rounded=0;fontSize=10;" vertex="1" parent="Y5Q_eQNpxi7wkEvh1GTu-1">
          <mxGeometry x="60" y="140" width="40" height="20" as="geometry" />
        </mxCell>
        <mxCell id="Y5Q_eQNpxi7wkEvh1GTu-4" value="3" style="text;html=1;align=center;verticalAlign=middle;whiteSpace=wrap;rounded=0;fillColor=#f5f5f5;strokeColor=#666666;fontSize=14;fontColor=#333333;" vertex="1" parent="Y5Q_eQNpxi7wkEvh1GTu-1">
          <mxGeometry x="60" y="80" width="40" height="20" as="geometry" />
        </mxCell>
        <mxCell id="Y5Q_eQNpxi7wkEvh1GTu-5" value="5" style="text;html=1;align=center;verticalAlign=middle;whiteSpace=wrap;rounded=0;fillColor=#f5f5f5;strokeColor=#666666;fontSize=14;fontColor=#333333;" vertex="1" parent="Y5Q_eQNpxi7wkEvh1GTu-1">
          <mxGeometry x="60" y="100" width="40" height="20" as="geometry" />
        </mxCell>
        <mxCell id="Y5Q_eQNpxi7wkEvh1GTu-6" value="6" style="text;html=1;align=center;verticalAlign=middle;whiteSpace=wrap;rounded=0;fillColor=#f5f5f5;strokeColor=#666666;fontSize=14;fontColor=#333333;" vertex="1" parent="Y5Q_eQNpxi7wkEvh1GTu-1">
          <mxGeometry x="60" y="120" width="40" height="20" as="geometry" />
        </mxCell>
        <mxCell id="Y5Q_eQNpxi7wkEvh1GTu-7" value="1" style="text;html=1;align=center;verticalAlign=middle;whiteSpace=wrap;rounded=0;fillColor=#dae8fc;strokeColor=#6c8ebf;fontSize=14;fontColor=#333333;" vertex="1" parent="Y5Q_eQNpxi7wkEvh1GTu-1">
          <mxGeometry x="140" y="60" width="40" height="40" as="geometry" />
        </mxCell>
        <mxCell id="Y5Q_eQNpxi7wkEvh1GTu-8" style="edgeStyle=orthogonalEdgeStyle;rounded=0;orthogonalLoop=1;jettySize=auto;html=1;exitX=0.5;exitY=0;exitDx=0;exitDy=0;entryX=1;entryY=0.5;entryDx=0;entryDy=0;fillColor=#dae8fc;strokeColor=#6c8ebf;" edge="1" parent="Y5Q_eQNpxi7wkEvh1GTu-1" source="Y5Q_eQNpxi7wkEvh1GTu-9" target="Y5Q_eQNpxi7wkEvh1GTu-4">
          <mxGeometry relative="1" as="geometry">
            <Array as="points">
              <mxPoint x="240" y="40" />
              <mxPoint x="120" y="40" />
              <mxPoint x="120" y="90" />
            </Array>
          </mxGeometry>
        </mxCell>
        <mxCell id="Y5Q_eQNpxi7wkEvh1GTu-9" value="1" style="text;html=1;align=center;verticalAlign=middle;whiteSpace=wrap;rounded=0;fillColor=#d5e8d4;strokeColor=#82b366;fontSize=14;fontColor=#333333;" vertex="1" parent="Y5Q_eQNpxi7wkEvh1GTu-1">
          <mxGeometry x="220" y="60" width="40" height="40" as="geometry" />
        </mxCell>
        <mxCell id="Y5Q_eQNpxi7wkEvh1GTu-10" value="0" style="text;html=1;align=center;verticalAlign=middle;whiteSpace=wrap;rounded=0;fontSize=10;" vertex="1" parent="Y5Q_eQNpxi7wkEvh1GTu-1">
          <mxGeometry x="40" y="60" width="20" height="20" as="geometry" />
        </mxCell>
        <mxCell id="Y5Q_eQNpxi7wkEvh1GTu-11" value="1" style="text;html=1;align=center;verticalAlign=middle;whiteSpace=wrap;rounded=0;fontSize=10;" vertex="1" parent="Y5Q_eQNpxi7wkEvh1GTu-1">
          <mxGeometry x="40" y="80" width="20" height="20" as="geometry" />
        </mxCell>
        <mxCell id="Y5Q_eQNpxi7wkEvh1GTu-12" value="2" style="text;html=1;align=center;verticalAlign=middle;whiteSpace=wrap;rounded=0;fontSize=10;" vertex="1" parent="Y5Q_eQNpxi7wkEvh1GTu-1">
          <mxGeometry x="40" y="100" width="20" height="20" as="geometry" />
        </mxCell>
        <mxCell id="Y5Q_eQNpxi7wkEvh1GTu-13" value="3" style="text;html=1;align=center;verticalAlign=middle;whiteSpace=wrap;rounded=0;fontSize=10;" vertex="1" parent="Y5Q_eQNpxi7wkEvh1GTu-1">
          <mxGeometry x="40" y="120" width="20" height="20" as="geometry" />
        </mxCell>
        <mxCell id="Y5Q_eQNpxi7wkEvh1GTu-14" value="start" style="text;html=1;align=center;verticalAlign=middle;whiteSpace=wrap;rounded=0;fontSize=10;" vertex="1" parent="Y5Q_eQNpxi7wkEvh1GTu-1">
          <mxGeometry x="140" y="100" width="40" height="20" as="geometry" />
        </mxCell>
        <mxCell id="XlzS49RO-8QcABvBX_UC-2" style="edgeStyle=orthogonalEdgeStyle;rounded=0;orthogonalLoop=1;jettySize=auto;html=1;exitX=0.5;exitY=0;exitDx=0;exitDy=0;entryX=0.5;entryY=0;entryDx=0;entryDy=0;fillColor=#d5e8d4;strokeColor=#82b366;" edge="1" parent="Y5Q_eQNpxi7wkEvh1GTu-1" source="Y5Q_eQNpxi7wkEvh1GTu-15" target="XlzS49RO-8QcABvBX_UC-0">
          <mxGeometry relative="1" as="geometry">
            <Array as="points">
              <mxPoint x="240" y="110" />
              <mxPoint x="240" y="110" />
            </Array>
          </mxGeometry>
        </mxCell>
        <mxCell id="Y5Q_eQNpxi7wkEvh1GTu-15" value="end" style="text;html=1;align=center;verticalAlign=middle;whiteSpace=wrap;rounded=0;fontSize=10;" vertex="1" parent="Y5Q_eQNpxi7wkEvh1GTu-1">
          <mxGeometry x="220" y="100" width="40" height="20" as="geometry" />
        </mxCell>
        <mxCell id="Y5Q_eQNpxi7wkEvh1GTu-16" value="2 / 2 = 1" style="edgeStyle=orthogonalEdgeStyle;rounded=0;orthogonalLoop=1;jettySize=auto;html=1;exitX=0.5;exitY=0;exitDx=0;exitDy=0;entryX=1;entryY=0.5;entryDx=0;entryDy=0;fillColor=#f5f5f5;strokeColor=#666666;" edge="1" parent="Y5Q_eQNpxi7wkEvh1GTu-1" source="Y5Q_eQNpxi7wkEvh1GTu-7" target="Y5Q_eQNpxi7wkEvh1GTu-4">
          <mxGeometry relative="1" as="geometry" />
        </mxCell>
        <mxCell id="Y5Q_eQNpxi7wkEvh1GTu-17" value="2" style="text;html=1;align=center;verticalAlign=middle;whiteSpace=wrap;rounded=0;fillColor=#f5f5f5;strokeColor=#666666;fontSize=14;fontColor=#333333;" vertex="1" parent="Y5Q_eQNpxi7wkEvh1GTu-1">
          <mxGeometry x="300" y="60" width="40" height="40" as="geometry" />
        </mxCell>
        <mxCell id="Y5Q_eQNpxi7wkEvh1GTu-18" value="target" style="text;html=1;align=center;verticalAlign=middle;whiteSpace=wrap;rounded=0;fontSize=10;" vertex="1" parent="Y5Q_eQNpxi7wkEvh1GTu-1">
          <mxGeometry x="300" y="100" width="40" height="20" as="geometry" />
        </mxCell>
        <mxCell id="XlzS49RO-8QcABvBX_UC-0" value="1" style="text;html=1;align=center;verticalAlign=middle;whiteSpace=wrap;rounded=0;fillColor=#d5e8d4;strokeColor=#82b366;fontSize=14;fontColor=#333333;" vertex="1" parent="Y5Q_eQNpxi7wkEvh1GTu-1">
          <mxGeometry x="220" y="140" width="40" height="40" as="geometry" />
        </mxCell>
        <mxCell id="XlzS49RO-8QcABvBX_UC-1" value="return" style="text;html=1;align=center;verticalAlign=middle;whiteSpace=wrap;rounded=0;fontSize=10;" vertex="1" parent="Y5Q_eQNpxi7wkEvh1GTu-1">
          <mxGeometry x="220" y="180" width="40" height="20" as="geometry" />
        </mxCell>
      </root>
    </mxGraphModel>
  </diagram>
  <diagram name="2_1" id="LJYfuRmUA76EL1v3R3Xw">
    <mxGraphModel dx="402" dy="506" grid="1" gridSize="10" guides="1" tooltips="1" connect="1" arrows="1" fold="1" page="1" pageScale="1" pageWidth="220" pageHeight="180" math="0" shadow="0">
      <root>
        <mxCell id="Vpa98Tr01UHAS9CUyru7-0" />
        <mxCell id="Vpa98Tr01UHAS9CUyru7-1" parent="Vpa98Tr01UHAS9CUyru7-0" />
        <mxCell id="jPGSNIt3N5dEBffN0MbL-6" style="edgeStyle=orthogonalEdgeStyle;rounded=0;orthogonalLoop=1;jettySize=auto;html=1;exitX=1;exitY=0.5;exitDx=0;exitDy=0;entryX=0;entryY=0.5;entryDx=0;entryDy=0;fillColor=#dae8fc;strokeColor=#6c8ebf;" edge="1" parent="Vpa98Tr01UHAS9CUyru7-1" source="Vpa98Tr01UHAS9CUyru7-2" target="jPGSNIt3N5dEBffN0MbL-0">
          <mxGeometry relative="1" as="geometry" />
        </mxCell>
        <mxCell id="Vpa98Tr01UHAS9CUyru7-2" value="1" style="text;html=1;align=center;verticalAlign=middle;whiteSpace=wrap;rounded=0;fillColor=#dae8fc;strokeColor=#6c8ebf;fontSize=14;fontColor=#333333;" vertex="1" parent="Vpa98Tr01UHAS9CUyru7-1">
          <mxGeometry x="60" y="40" width="40" height="20" as="geometry" />
        </mxCell>
        <mxCell id="Vpa98Tr01UHAS9CUyru7-3" value="head" style="text;html=1;align=center;verticalAlign=middle;whiteSpace=wrap;rounded=0;fontSize=10;" vertex="1" parent="Vpa98Tr01UHAS9CUyru7-1">
          <mxGeometry x="60" y="120" width="40" height="20" as="geometry" />
        </mxCell>
        <mxCell id="jPGSNIt3N5dEBffN0MbL-7" style="edgeStyle=orthogonalEdgeStyle;rounded=0;orthogonalLoop=1;jettySize=auto;html=1;exitX=1;exitY=0.5;exitDx=0;exitDy=0;entryX=0;entryY=0.5;entryDx=0;entryDy=0;fillColor=#dae8fc;strokeColor=#6c8ebf;" edge="1" parent="Vpa98Tr01UHAS9CUyru7-1" source="Vpa98Tr01UHAS9CUyru7-4" target="jPGSNIt3N5dEBffN0MbL-1">
          <mxGeometry relative="1" as="geometry" />
        </mxCell>
        <mxCell id="Vpa98Tr01UHAS9CUyru7-4" value="3" style="text;html=1;align=center;verticalAlign=middle;whiteSpace=wrap;rounded=0;fillColor=#dae8fc;strokeColor=#6c8ebf;fontSize=14;fontColor=#333333;" vertex="1" parent="Vpa98Tr01UHAS9CUyru7-1">
          <mxGeometry x="60" y="60" width="40" height="20" as="geometry" />
        </mxCell>
        <mxCell id="Vpa98Tr01UHAS9CUyru7-5" value="5" style="text;html=1;align=center;verticalAlign=middle;whiteSpace=wrap;rounded=0;fillColor=#f5f5f5;strokeColor=#666666;fontSize=14;fontColor=#333333;" vertex="1" parent="Vpa98Tr01UHAS9CUyru7-1">
          <mxGeometry x="60" y="80" width="40" height="20" as="geometry" />
        </mxCell>
        <mxCell id="Vpa98Tr01UHAS9CUyru7-6" value="6" style="text;html=1;align=center;verticalAlign=middle;whiteSpace=wrap;rounded=0;fillColor=#f5f5f5;strokeColor=#666666;fontSize=14;fontColor=#333333;" vertex="1" parent="Vpa98Tr01UHAS9CUyru7-1">
          <mxGeometry x="60" y="100" width="40" height="20" as="geometry" />
        </mxCell>
        <mxCell id="Vpa98Tr01UHAS9CUyru7-10" value="0" style="text;html=1;align=center;verticalAlign=middle;whiteSpace=wrap;rounded=0;fontSize=10;" vertex="1" parent="Vpa98Tr01UHAS9CUyru7-1">
          <mxGeometry x="40" y="40" width="20" height="20" as="geometry" />
        </mxCell>
        <mxCell id="Vpa98Tr01UHAS9CUyru7-11" value="1" style="text;html=1;align=center;verticalAlign=middle;whiteSpace=wrap;rounded=0;fontSize=10;" vertex="1" parent="Vpa98Tr01UHAS9CUyru7-1">
          <mxGeometry x="40" y="60" width="20" height="20" as="geometry" />
        </mxCell>
        <mxCell id="Vpa98Tr01UHAS9CUyru7-12" value="2" style="text;html=1;align=center;verticalAlign=middle;whiteSpace=wrap;rounded=0;fontSize=10;" vertex="1" parent="Vpa98Tr01UHAS9CUyru7-1">
          <mxGeometry x="40" y="80" width="20" height="20" as="geometry" />
        </mxCell>
        <mxCell id="Vpa98Tr01UHAS9CUyru7-13" value="3" style="text;html=1;align=center;verticalAlign=middle;whiteSpace=wrap;rounded=0;fontSize=10;" vertex="1" parent="Vpa98Tr01UHAS9CUyru7-1">
          <mxGeometry x="40" y="100" width="20" height="20" as="geometry" />
        </mxCell>
        <mxCell id="jPGSNIt3N5dEBffN0MbL-0" value="1" style="text;html=1;align=center;verticalAlign=middle;whiteSpace=wrap;rounded=0;fillColor=#dae8fc;strokeColor=#6c8ebf;fontSize=14;fontColor=#333333;" vertex="1" parent="Vpa98Tr01UHAS9CUyru7-1">
          <mxGeometry x="140" y="40" width="40" height="20" as="geometry" />
        </mxCell>
        <mxCell id="jPGSNIt3N5dEBffN0MbL-1" value="3" style="text;html=1;align=center;verticalAlign=middle;whiteSpace=wrap;rounded=0;fillColor=#dae8fc;strokeColor=#6c8ebf;fontSize=14;fontColor=#333333;" vertex="1" parent="Vpa98Tr01UHAS9CUyru7-1">
          <mxGeometry x="140" y="60" width="40" height="20" as="geometry" />
        </mxCell>
        <mxCell id="jPGSNIt3N5dEBffN0MbL-19" value="subArray" style="text;html=1;align=center;verticalAlign=middle;whiteSpace=wrap;rounded=0;fontSize=10;" vertex="1" parent="Vpa98Tr01UHAS9CUyru7-1">
          <mxGeometry x="140" y="80" width="40" height="20" as="geometry" />
        </mxCell>
      </root>
    </mxGraphModel>
  </diagram>
  <diagram name="2_2" id="aI3VjkIaiBivY9CdUWU3">
    <mxGraphModel dx="402" dy="506" grid="1" gridSize="10" guides="1" tooltips="1" connect="1" arrows="1" fold="1" page="1" pageScale="1" pageWidth="220" pageHeight="200" math="0" shadow="0">
      <root>
        <mxCell id="MD0Ad1XlINJ8-fu-KrGH-0" />
        <mxCell id="MD0Ad1XlINJ8-fu-KrGH-1" parent="MD0Ad1XlINJ8-fu-KrGH-0" />
        <mxCell id="vo7rIMh8yyg6KYCNbm2a-3" style="edgeStyle=orthogonalEdgeStyle;rounded=0;orthogonalLoop=1;jettySize=auto;html=1;exitX=1;exitY=0.5;exitDx=0;exitDy=0;entryX=0;entryY=0.5;entryDx=0;entryDy=0;fillColor=#dae8fc;strokeColor=#6c8ebf;" edge="1" parent="MD0Ad1XlINJ8-fu-KrGH-1" source="MD0Ad1XlINJ8-fu-KrGH-14" target="vo7rIMh8yyg6KYCNbm2a-0">
          <mxGeometry relative="1" as="geometry" />
        </mxCell>
        <mxCell id="MD0Ad1XlINJ8-fu-KrGH-13" value="1" style="text;html=1;align=center;verticalAlign=middle;whiteSpace=wrap;rounded=0;fillColor=#f5f5f5;strokeColor=#666666;fontSize=14;fontColor=#333333;" vertex="1" parent="MD0Ad1XlINJ8-fu-KrGH-1">
          <mxGeometry x="60" y="40" width="40" height="20" as="geometry" />
        </mxCell>
        <mxCell id="IVMDd_DjwtCoEQIz4AIB-0" style="edgeStyle=orthogonalEdgeStyle;rounded=0;orthogonalLoop=1;jettySize=auto;html=1;exitX=1;exitY=0.5;exitDx=0;exitDy=0;entryX=0;entryY=0.5;entryDx=0;entryDy=0;fillColor=#d5e8d4;strokeColor=#82b366;" edge="1" parent="MD0Ad1XlINJ8-fu-KrGH-1" source="MD0Ad1XlINJ8-fu-KrGH-14" target="ggoG11Fzi2yd659g9oH2-0">
          <mxGeometry relative="1" as="geometry" />
        </mxCell>
        <mxCell id="MD0Ad1XlINJ8-fu-KrGH-14" value="3" style="text;html=1;align=center;verticalAlign=middle;whiteSpace=wrap;rounded=0;fillColor=#dae8fc;strokeColor=#6c8ebf;fontSize=14;fontColor=#333333;" vertex="1" parent="MD0Ad1XlINJ8-fu-KrGH-1">
          <mxGeometry x="60" y="60" width="40" height="20" as="geometry" />
        </mxCell>
        <mxCell id="MD0Ad1XlINJ8-fu-KrGH-15" value="subArray" style="text;html=1;align=center;verticalAlign=middle;whiteSpace=wrap;rounded=0;fontSize=10;" vertex="1" parent="MD0Ad1XlINJ8-fu-KrGH-1">
          <mxGeometry x="60" y="80" width="40" height="20" as="geometry" />
        </mxCell>
        <mxCell id="vo7rIMh8yyg6KYCNbm2a-0" value="3" style="text;html=1;align=center;verticalAlign=middle;whiteSpace=wrap;rounded=0;fillColor=#dae8fc;strokeColor=#6c8ebf;fontSize=14;fontColor=#333333;" vertex="1" parent="MD0Ad1XlINJ8-fu-KrGH-1">
          <mxGeometry x="140" y="40" width="40" height="20" as="geometry" />
        </mxCell>
        <mxCell id="aR9Xs1YFpcnDJihYH0FO-0" value="0" style="text;html=1;align=center;verticalAlign=middle;whiteSpace=wrap;rounded=0;fontSize=10;" vertex="1" parent="MD0Ad1XlINJ8-fu-KrGH-1">
          <mxGeometry x="40" y="40" width="20" height="20" as="geometry" />
        </mxCell>
        <mxCell id="aR9Xs1YFpcnDJihYH0FO-1" value="1" style="text;html=1;align=center;verticalAlign=middle;whiteSpace=wrap;rounded=0;fontSize=10;" vertex="1" parent="MD0Ad1XlINJ8-fu-KrGH-1">
          <mxGeometry x="40" y="60" width="20" height="20" as="geometry" />
        </mxCell>
        <mxCell id="ggoG11Fzi2yd659g9oH2-0" value="1" style="text;html=1;align=center;verticalAlign=middle;whiteSpace=wrap;rounded=0;fillColor=#d5e8d4;strokeColor=#82b366;fontSize=14;fontColor=#333333;" vertex="1" parent="MD0Ad1XlINJ8-fu-KrGH-1">
          <mxGeometry x="140" y="100" width="40" height="40" as="geometry" />
        </mxCell>
        <mxCell id="IVMDd_DjwtCoEQIz4AIB-1" value="return" style="text;html=1;align=center;verticalAlign=middle;whiteSpace=wrap;rounded=0;fontSize=10;" vertex="1" parent="MD0Ad1XlINJ8-fu-KrGH-1">
          <mxGeometry x="140" y="140" width="40" height="20" as="geometry" />
        </mxCell>
      </root>
    </mxGraphModel>
  </diagram>
</mxfile>
